<?xml version="1.0" ?><!DOCTYPE svg  PUBLIC '-//W3C//DTD SVG 1.1//EN'  'http://www.w3.org/Graphics/SVG/1.1/DTD/svg11.dtd'><svg enable-background="new 0 0 130 130" height="130px" id="icon" version="1.1" viewBox="0 0 130 130" width="130px" xml:space="preserve" xmlns="http://www.w3.org/2000/svg" xmlns:xlink="http://www.w3.org/1999/xlink"><g><path d="M42.8,95.819c0,2.254-1.826,4.08-4.079,4.08H9.48   c-2.254,0-4.08-1.826-4.08-4.08V85.28c0-2.255,1.827-4.081,4.08-4.081h29.24c2.253,0,4.079,1.826,4.079,4.081V95.819z" fill="none" stroke="#3262F9" stroke-miterlimit="10" stroke-width="2"/><path d="M85.3,95.819c0,2.254-1.826,4.08-4.08,4.08H51.98   c-2.254,0-4.08-1.826-4.08-4.08V85.28c0-2.255,1.826-4.081,4.08-4.081H81.22c2.254,0,4.08,1.826,4.08,4.081V95.819z" fill="none" stroke="#3262F9" stroke-miterlimit="10" stroke-width="2"/><path d="M126.101,95.819c0,2.254-1.826,4.08-4.081,4.08   H92.781c-2.255,0-4.081-1.826-4.081-4.08V85.28c0-2.255,1.826-4.081,4.081-4.081h29.238c2.255,0,4.081,1.826,4.081,4.081V95.819z" fill="none" stroke="#3262F9" stroke-miterlimit="10" stroke-width="2"/><path d="M63.2,72.022c0,2.251-1.826,4.077-4.08,4.077H29.88   c-2.254,0-4.08-1.826-4.08-4.077V61.48c0-2.253,1.828-4.079,4.08-4.079h29.24c2.254,0,4.08,1.826,4.08,4.079V72.022z" fill="none" stroke="#3262F9" stroke-miterlimit="10" stroke-width="2"/><path d="M105.7,72.022c0,2.251-1.826,4.077-4.081,4.077   H72.381c-2.255,0-4.081-1.826-4.081-4.077V61.48c0-2.253,1.826-4.079,4.081-4.079h29.238c2.255,0,4.081,1.826,4.081,4.079V72.022z" fill="none" stroke="#3262F9" stroke-miterlimit="10" stroke-width="2"/><path d="M44.5,48.22c0,2.254-1.826,4.08-4.08,4.08H11.18   c-2.253,0-4.079-1.828-4.079-4.08V37.68c0-2.254,1.827-4.08,4.079-4.08h29.24c2.254,0,4.08,1.828,4.08,4.08V48.22z" fill="none" stroke="#3262F9" stroke-miterlimit="10" stroke-width="2"/><path d="M85.3,48.22c0,2.254-1.826,4.08-4.08,4.08H51.98   c-2.254,0-4.08-1.828-4.08-4.08V37.68c0-2.254,1.826-4.08,4.08-4.08H81.22c2.254,0,4.08,1.828,4.08,4.08V48.22z" fill="none" stroke="#3262F9" stroke-miterlimit="10" stroke-width="2"/><path d="M126.101,48.22c0,2.254-1.826,4.08-4.081,4.08   H92.781c-2.255,0-4.081-1.828-4.081-4.08V37.68c0-2.254,1.826-4.08,4.081-4.08h29.238c2.255,0,4.081,1.828,4.081,4.08V48.22z" fill="none" stroke="#3262F9" stroke-miterlimit="10" stroke-width="2"/></g></svg>