<?xml version="1.0" ?><!DOCTYPE svg  PUBLIC '-//W3C//DTD SVG 1.1//EN'  'http://www.w3.org/Graphics/SVG/1.1/DTD/svg11.dtd'><svg enable-background="new 0 0 130 130" height="130px" id="icon" version="1.1" viewBox="0 0 130 130" width="130px" xml:space="preserve" xmlns="http://www.w3.org/2000/svg" xmlns:xlink="http://www.w3.org/1999/xlink"><path d="M105.021,55.983V25.637H75.949  C75.762,18.16,69.316,12.15,61.381,12.15c-7.937,0-14.382,6.01-14.569,13.486H17.74v30.347c8.058,0,14.587,6.183,14.587,13.814  c0,7.631-6.529,13.818-14.587,13.818v30.342h29.058c0-7.626,6.529-13.813,14.583-13.813c8.053,0,14.583,6.188,14.583,13.813h29.058  V83.616c8.053,0,14.583-6.188,14.583-13.818C119.604,62.166,113.074,55.983,105.021,55.983z" fill="none" stroke="#3262F9" stroke-miterlimit="10" stroke-width="2"/></svg>