<?xml version="1.0" ?><!DOCTYPE svg  PUBLIC '-//W3C//DTD SVG 1.1//EN'  'http://www.w3.org/Graphics/SVG/1.1/DTD/svg11.dtd'><svg enable-background="new 0 0 130 130" height="130px" id="icon" version="1.1" viewBox="0 0 130 130" width="130px" xml:space="preserve" xmlns="http://www.w3.org/2000/svg" xmlns:xlink="http://www.w3.org/1999/xlink"><path d="M54.196,24.007v12.259  c0,3.539-2.436,6.411-5.438,6.411c-3.001,0-5.438-2.871-5.438-6.411V24.007c-6.519,0.159-11.781,7.97-11.781,17.604  c0,9.739,5.625,17.635,12.235,17.635c0,0,0,1.997,0,3.206v48.632c0,3.244,2.231,5.878,4.984,5.878c2.755,0,4.986-2.631,4.986-5.878  V62.449c0-1.209,0-3.206,0-3.206c6.609,0,12.233-7.896,12.233-17.635C65.977,31.977,60.716,24.166,54.196,24.007z" fill="none" stroke="#3262F9" stroke-miterlimit="10" stroke-width="2"/><g><path d="M95.115,111.84c0,1.896-2.311,3.79-4.712,3.79   h-7.25c-2.402,0-3.988-1.897-3.988-3.79V80.994c0-1.895,1.586-3.064,3.988-3.064h7.25c2.401,0,4.712,1.172,4.712,3.064V111.84z" fill="none" stroke="#3262F9" stroke-miterlimit="10" stroke-width="2"/><line fill="none" stroke="#3262F9" stroke-miterlimit="10" stroke-width="2" x1="86.778" x2="86.778" y1="77.204" y2="115.267"/><path d="M94.753,74.305c0,1.951-1.34,3.625-2.99,3.625   h-9.969c-1.654,0-2.992-1.674-2.992-3.625l0,0c0-1.951,1.339-3.625,2.992-3.625h9.969C93.413,70.68,94.753,72.354,94.753,74.305   L94.753,74.305z" fill="none" stroke="#3262F9" stroke-miterlimit="10" stroke-width="2"/><path d="M92.759,40.954c0-6.405-4.712-17.399-5.438-19.212   c-0.602-1.506-6.524,12.807-6.524,19.212c0,5.116,2.899,9.402,2.899,10.332v16.313c0,1.501,1.218,2.719,2.719,2.719h0.363   c1.501,0,2.719-1.218,2.719-2.719V51.286C89.497,50.429,92.759,46.219,92.759,40.954z" fill="none" stroke="#3262F9" stroke-miterlimit="10" stroke-width="2"/></g></svg>